<svg width="30" height="20" viewBox="0 0 30 20" fill="none" xmlns="http://www.w3.org/2000/svg">
<path d="M15.1801 -0.000534058C12.7012 -0.000534058 10.5594 0.647142 8.53757 1.74064C5.37005 3.45333 2.7629 5.86943 0.481056 8.67563C-0.137488 9.43847 -0.165983 10.4886 0.434753 11.2403C2.99441 14.4379 5.96129 17.114 9.68443 18.7945C11.6315 19.6725 13.6664 20.1196 15.8034 19.9697C17.7778 19.8298 19.6203 19.2131 21.3739 18.2905C24.2101 16.797 26.5977 14.7103 28.7133 12.2843C29.0077 11.9475 29.2986 11.6081 29.5669 11.249C30.1261 10.506 30.1605 9.47934 29.5752 8.75612C26.9728 5.5363 23.9763 2.81185 20.1961 1.1264C18.5471 0.389555 16.8137 -0.00796509 15.1801 -0.000534058ZM15.0103 3.33073C18.5803 3.3394 21.4582 6.32021 21.4534 10.0057C21.4487 13.6911 18.5566 16.6632 14.9949 16.6583C11.4332 16.6533 8.54588 13.6688 8.553 9.98585C8.55782 9.10652 8.7287 8.2368 9.05586 7.42639C9.38303 6.61598 9.86007 5.88075 10.4597 5.26271C11.0594 4.64468 11.7699 4.15595 12.5508 3.82445C13.3316 3.49296 14.1673 3.32518 15.0103 3.33073Z" fill="#222A66"/>
</svg>
