<svg width="18" height="17" viewBox="0 0 18 17" fill="none" xmlns="http://www.w3.org/2000/svg">
<path d="M14 11.25C14 10.6211 13.85 10.026 13.5835 9.5H15.75C16.2141 9.5 16.6592 9.68437 16.9874 10.0126C17.3156 10.3408 17.5 10.7859 17.5 11.25V11.8125C17.5 12.8519 17.1158 13.6874 16.3911 14.2739C15.7324 14.807 14.751 15.1668 13.4254 15.2373C13.7546 14.6362 13.95 13.9642 13.9913 13.2347L13.9915 13.2347L13.9919 13.221L13.9998 12.9521L14 12.9448V12.9375V11.25ZM10.125 9.5C10.5891 9.5 11.0342 9.68437 11.3624 10.0126C11.6906 10.3408 11.875 10.7859 11.875 11.25V12.9375C11.875 13.8988 11.3955 14.7361 10.4477 15.3539C9.48632 15.9805 8.04391 16.375 6.1875 16.375C4.33109 16.375 2.88868 15.9805 1.92734 15.3539C0.979515 14.7361 0.5 13.8988 0.5 12.9375V11.25C0.5 10.7859 0.684374 10.3408 1.01256 10.0126C1.34075 9.68437 1.78587 9.5 2.25 9.5H10.125ZM6.1875 0.5C6.63892 0.5 7.08592 0.588914 7.50297 0.761664C7.92003 0.934415 8.29898 1.18762 8.61818 1.50682C8.93738 1.82602 9.19059 2.20497 9.36334 2.62203C9.53609 3.03908 9.625 3.48608 9.625 3.9375C9.625 4.38892 9.53609 4.83592 9.36334 5.25297C9.19059 5.67003 8.93738 6.04898 8.61818 6.36818C8.29898 6.68738 7.92003 6.94059 7.50297 7.11334C7.08592 7.28609 6.63892 7.375 6.1875 7.375C5.27582 7.375 4.40148 7.01284 3.75682 6.36818C3.11216 5.72352 2.75 4.84918 2.75 3.9375C2.75 3.02582 3.11216 2.15148 3.75682 1.50682C4.40148 0.862164 5.27582 0.5 6.1875 0.5ZM14.0625 2.75C14.6758 2.75 15.264 2.99364 15.6977 3.42732C16.1314 3.86099 16.375 4.44919 16.375 5.0625C16.375 5.67581 16.1314 6.26401 15.6977 6.69768C15.264 7.13136 14.6758 7.375 14.0625 7.375C13.4492 7.375 12.861 7.13136 12.4273 6.69768C11.9936 6.26401 11.75 5.67581 11.75 5.0625C11.75 4.44919 11.9936 3.86099 12.4273 3.42732C12.861 2.99364 13.4492 2.75 14.0625 2.75Z" stroke="white"/>
</svg>
