<svg width="20" height="16" viewBox="0 0 20 16" fill="none" xmlns="http://www.w3.org/2000/svg">
<path d="M20 15.2727C20 15.4656 19.919 15.6506 19.7747 15.787C19.6304 15.9234 19.4348 16 19.2308 16H0.769231C0.565218 16 0.369561 15.9234 0.225302 15.787C0.0810437 15.6506 0 15.4656 0 15.2727V0.727273C0 0.534388 0.0810437 0.349404 0.225302 0.213013C0.369561 0.0766233 0.565218 0 0.769231 0C0.973243 0 1.1689 0.0766233 1.31316 0.213013C1.45742 0.349404 1.53846 0.534388 1.53846 0.727273V10.6091L6.375 6.02727C6.52084 5.8907 6.71781 5.81409 6.92308 5.81409C7.12834 5.81409 7.32531 5.8907 7.47115 6.02727L10 8.42727L14.6827 4L13.2981 2.7C13.1937 2.59485 13.123 2.46391 13.0941 2.32233C13.0651 2.18076 13.0792 2.03434 13.1346 1.9C13.1945 1.76834 13.2937 1.65606 13.4201 1.57693C13.5465 1.49781 13.6946 1.45527 13.8462 1.45455H17.6923C17.8963 1.45455 18.092 1.53117 18.2362 1.66756C18.3805 1.80395 18.4615 1.98893 18.4615 2.18182V5.81818C18.462 5.96176 18.4175 6.10227 18.3337 6.22198C18.2498 6.3417 18.1304 6.43527 17.9904 6.49091C17.8955 6.52653 17.7944 6.54503 17.6923 6.54545C17.488 6.54464 17.2919 6.46981 17.1442 6.33636L15.7692 5.02727L10.5481 9.97273C10.4022 10.1093 10.2053 10.1859 10 10.1859C9.79473 10.1859 9.59776 10.1093 9.45192 9.97273L6.92308 7.57273L1.53846 12.6636V14.5455H19.2308C19.4348 14.5455 19.6304 14.6221 19.7747 14.7585C19.919 14.8949 20 15.0798 20 15.2727Z" fill="white"/>
</svg>
