<svg width="20" height="20" viewBox="0 0 20 20" fill="none" xmlns="http://www.w3.org/2000/svg">
<path d="M6.42857 6.07143C6.42857 6.35559 6.31569 6.62811 6.11476 6.82904C5.91383 7.02998 5.6413 7.14286 5.35714 7.14286C5.07298 7.14286 4.80046 7.02998 4.59953 6.82904C4.3986 6.62811 4.28571 6.35559 4.28571 6.07143C4.28571 5.78727 4.3986 5.51475 4.59953 5.31381C4.80046 5.11288 5.07298 5 5.35714 5C5.6413 5 5.91383 5.11288 6.11476 5.31381C6.31569 5.51475 6.42857 5.78727 6.42857 6.07143ZM5.35714 11.4286C5.6413 11.4286 5.91383 11.3157 6.11476 11.1148C6.31569 10.9138 6.42857 10.6413 6.42857 10.3571C6.42857 10.073 6.31569 9.80046 6.11476 9.59953C5.91383 9.3986 5.6413 9.28571 5.35714 9.28571C5.07298 9.28571 4.80046 9.3986 4.59953 9.59953C4.3986 9.80046 4.28571 10.073 4.28571 10.3571C4.28571 10.6413 4.3986 10.9138 4.59953 11.1148C4.80046 11.3157 5.07298 11.4286 5.35714 11.4286ZM6.42857 14.6429C6.42857 14.927 6.31569 15.1995 6.11476 15.4005C5.91383 15.6014 5.6413 15.7143 5.35714 15.7143C5.07298 15.7143 4.80046 15.6014 4.59953 15.4005C4.3986 15.1995 4.28571 14.927 4.28571 14.6429C4.28571 14.3587 4.3986 14.0862 4.59953 13.8852C4.80046 13.6843 5.07298 13.5714 5.35714 13.5714C5.6413 13.5714 5.91383 13.6843 6.11476 13.8852C6.31569 14.0862 6.42857 14.3587 6.42857 14.6429V14.6429ZM9.28571 5.71429C9.09627 5.71429 8.91459 5.78954 8.78064 5.9235C8.64668 6.05745 8.57143 6.23913 8.57143 6.42857C8.57143 6.61801 8.64668 6.79969 8.78064 6.93365C8.91459 7.0676 9.09627 7.14286 9.28571 7.14286H15C15.1894 7.14286 15.3711 7.0676 15.5051 6.93365C15.639 6.79969 15.7143 6.61801 15.7143 6.42857C15.7143 6.23913 15.639 6.05745 15.5051 5.9235C15.3711 5.78954 15.1894 5.71429 15 5.71429H9.28571ZM8.57143 10.7143C8.57143 10.5248 8.64668 10.3432 8.78064 10.2092C8.91459 10.0753 9.09627 10 9.28571 10H15C15.1894 10 15.3711 10.0753 15.5051 10.2092C15.639 10.3432 15.7143 10.5248 15.7143 10.7143C15.7143 10.9037 15.639 11.0854 15.5051 11.2194C15.3711 11.3533 15.1894 11.4286 15 11.4286H9.28571C9.09627 11.4286 8.91459 11.3533 8.78064 11.2194C8.64668 11.0854 8.57143 10.9037 8.57143 10.7143ZM9.28571 14.2857C9.09627 14.2857 8.91459 14.361 8.78064 14.4949C8.64668 14.6289 8.57143 14.8106 8.57143 15C8.57143 15.1894 8.64668 15.3711 8.78064 15.5051C8.91459 15.639 9.09627 15.7143 9.28571 15.7143H15C15.1894 15.7143 15.3711 15.639 15.5051 15.5051C15.639 15.3711 15.7143 15.1894 15.7143 15C15.7143 14.8106 15.639 14.6289 15.5051 14.4949C15.3711 14.361 15.1894 14.2857 15 14.2857H9.28571ZM0 2.85714C0 2.09938 0.301019 1.37266 0.836838 0.836838C1.37266 0.301019 2.09938 0 2.85714 0H17.1429C17.9006 0 18.6273 0.301019 19.1632 0.836838C19.699 1.37266 20 2.09938 20 2.85714V17.1429C20 17.9006 19.699 18.6273 19.1632 19.1632C18.6273 19.699 17.9006 20 17.1429 20H2.85714C2.09938 20 1.37266 19.699 0.836838 19.1632C0.301019 18.6273 0 17.9006 0 17.1429V2.85714ZM2.85714 1.42857C2.47826 1.42857 2.1149 1.57908 1.84699 1.84699C1.57908 2.1149 1.42857 2.47826 1.42857 2.85714V17.1429C1.42857 17.5217 1.57908 17.8851 1.84699 18.153C2.1149 18.4209 2.47826 18.5714 2.85714 18.5714H17.1429C17.5217 18.5714 17.8851 18.4209 18.153 18.153C18.4209 17.8851 18.5714 17.5217 18.5714 17.1429V2.85714C18.5714 2.47826 18.4209 2.1149 18.153 1.84699C17.8851 1.57908 17.5217 1.42857 17.1429 1.42857H2.85714Z" fill="white"/>
</svg>
