<svg width="19" height="20" viewBox="0 0 19 20" fill="none" xmlns="http://www.w3.org/2000/svg">
<path d="M16.3725 3.75V4.25H16.8725H17.6703V5.75H16.8725H16.3725V6.25V8.75V9.25H16.8725H17.6703V10.75H16.8725H16.3725V11.25V13.75V14.25H16.8725H17.6703V15.75H16.8725H16.3725V16.25V18.125C16.3725 18.8665 15.7422 19.5 14.9256 19.5H1.94682C1.13028 19.5 0.5 18.8665 0.5 18.125V1.875C0.5 1.13353 1.13028 0.5 1.94682 0.5H14.9256C15.7422 0.5 16.3725 1.13353 16.3725 1.875V3.75ZM7.00742 10.7857L6.91813 10.75H6.82199H6.6192C4.9323 10.75 3.39364 11.8962 3.39364 13.5V14.25C3.39364 15.0252 4.11655 15.5 4.80216 15.5H12.0703C12.7559 15.5 13.4788 15.0252 13.4788 14.25V13.5C13.4788 11.8962 11.9402 10.75 10.2533 10.75H10.0505H9.9536L9.86373 10.7862C9.42631 10.9623 8.94204 11.0625 8.43623 11.0625C7.93112 11.0625 7.45041 10.9626 7.00742 10.7857ZM11.532 7.5C11.532 5.8274 10.1262 4.5 8.43623 4.5C6.74624 4.5 5.34047 5.8274 5.34047 7.5C5.34047 9.1726 6.74624 10.5 8.43623 10.5C10.1262 10.5 11.532 9.1726 11.532 7.5Z" stroke="white"/>
</svg>
